<svg xmlns="http://www.w3.org/2000/svg" width="18" height="18" viewBox="0 0 18 18" fill="none">
	<path
		d="M16.4991 4.60833C16.4824 4.60833 16.4574 4.60833 16.4324 4.60833C12.0241 4.16666 7.62407 4 3.26574 4.44166L1.56574 4.60833C1.21574 4.64166 0.907408 4.39166 0.874075 4.04166C0.840742 3.69166 1.09074 3.39166 1.43241 3.35833L3.13241 3.19166C7.56574 2.74166 12.0574 2.91666 16.5574 3.35833C16.8991 3.39166 17.1491 3.7 17.1157 4.04166C17.0907 4.36666 16.8157 4.60833 16.4991 4.60833Z"
		fill="currentColor" />
	<path
		d="M6.08241 3.76666C6.04908 3.76666 6.01574 3.76666 5.97407 3.75833C5.64074 3.7 5.40741 3.375 5.46574 3.04166L5.64908 1.95C5.78241 1.15 5.96574 0.0416641 7.90741 0.0416641H10.0907C12.0407 0.0416641 12.2241 1.19166 12.3491 1.95833L12.5324 3.04166C12.5907 3.38333 12.3574 3.70833 12.0241 3.75833C11.6824 3.81666 11.3574 3.58333 11.3074 3.25L11.1241 2.16666C11.0074 1.44166 10.9824 1.3 10.0991 1.3H7.91574C7.03241 1.3 7.01574 1.41666 6.89074 2.15833L6.69907 3.24166C6.64908 3.55 6.38241 3.76666 6.08241 3.76666Z"
		fill="currentColor" />
	<path
		d="M11.6741 17.9583H6.32408C3.41574 17.9583 3.29908 16.35 3.20741 15.05L2.66574 6.65833C2.64074 6.31666 2.90741 6.01666 3.24908 5.99166C3.59908 5.975 3.89074 6.23333 3.91574 6.575L4.45741 14.9667C4.54908 16.2333 4.58241 16.7083 6.32408 16.7083H11.6741C13.4241 16.7083 13.4574 16.2333 13.5407 14.9667L14.0824 6.575C14.1074 6.23333 14.4074 5.975 14.7491 5.99166C15.0907 6.01666 15.3574 6.30833 15.3324 6.65833L14.7907 15.05C14.6991 16.35 14.5824 17.9583 11.6741 17.9583Z"
		fill="currentColor" />
	<path
		d="M10.3824 13.375H7.60741C7.26574 13.375 6.98241 13.0917 6.98241 12.75C6.98241 12.4083 7.26574 12.125 7.60741 12.125H10.3824C10.7241 12.125 11.0074 12.4083 11.0074 12.75C11.0074 13.0917 10.7241 13.375 10.3824 13.375Z"
		fill="currentColor" />
	<path
		d="M11.0824 10.0417H6.91574C6.57408 10.0417 6.29074 9.75833 6.29074 9.41666C6.29074 9.075 6.57408 8.79166 6.91574 8.79166H11.0824C11.4241 8.79166 11.7074 9.075 11.7074 9.41666C11.7074 9.75833 11.4241 10.0417 11.0824 10.0417Z"
		fill="currentColor" />
</svg>