<svg xmlns="http://www.w3.org/2000/svg" width="21" height="20" viewBox="0 0 21 20" fill="none">
	<path
		d="M16.0583 1.66663H14.475C12.6583 1.66663 11.7 2.62496 11.7 4.44163V6.02496C11.7 7.84163 12.6583 8.79996 14.475 8.79996H16.0583C17.875 8.79996 18.8333 7.84163 18.8333 6.02496V4.44163C18.8333 2.62496 17.875 1.66663 16.0583 1.66663Z"
		fill="currentColor" />
	<path
		d="M6.53341 11.1917H4.95008C3.12508 11.1917 2.16675 12.15 2.16675 13.9667V15.55C2.16675 17.375 3.12508 18.3333 4.94175 18.3333H6.52508C8.34175 18.3333 9.30008 17.375 9.30008 15.5583V13.975C9.30842 12.15 8.35008 11.1917 6.53341 11.1917Z"
		fill="currentColor" />
	<path
		d="M5.74175 8.81663C7.71617 8.81663 9.31675 7.21604 9.31675 5.24163C9.31675 3.26721 7.71617 1.66663 5.74175 1.66663C3.76733 1.66663 2.16675 3.26721 2.16675 5.24163C2.16675 7.21604 3.76733 8.81663 5.74175 8.81663Z"
		fill="currentColor" />
	<path
		d="M15.2583 18.3334C17.2328 18.3334 18.8334 16.7328 18.8334 14.7583C18.8334 12.7839 17.2328 11.1833 15.2583 11.1833C13.2839 11.1833 11.6833 12.7839 11.6833 14.7583C11.6833 16.7328 13.2839 18.3334 15.2583 18.3334Z"
		fill="currentColor" />
</svg>